# xmcd
#
# Track frame offsets: 
#        150
#        9652
#        22562
#        38121
#        51573
#        61462
#        73678
#        82933
#        99757
#        113824
#        124998
#        137727
#
# Disc length: 1965 seconds
#
# Revision: 0
# Processed by: cddbd v1.5.2PL0 Copyright (c) Steve Scherf et al.
# Submitted via: ExactAudioCopy v1.0b3
#
DISCID=9807ab0c
DTITLE=Various Artist - Coffee Break Brazil - Premium Blend Disc1
DYEAR=2014
DGENRE=Latin
TTITLE0=Deo Rian - Noites Cariocas
TTITLE1=Sergio Mendes and Brazil '66 - Tristeza
TTITLE2=Elis Regina - Tereza Sabe Sambar
TTITLE3=Jorge Ben - Mas Que Nada
TTITLE4=Tania Maria - Madalena
TTITLE5=Ronaldo Mesquita - Balanca Pema
TTITLE6=Claudette Soares - Feitinha Pro Poeta
TTITLE7=Doris Monteiro - Vou Deitar E Rolar (Quaquaraquaqua)
TTITLE8=Viva Voz - Desesperar, Jamais
TTITLE9=Orlandivo - Disse Me Disse
TTITLE10=Ivan Lins - Me Deixa Em Paz
TTITLE11=Carlos Lyra - La Vou Eu
EXTD=
EXTT0=
EXTT1=
EXTT2=
EXTT3=
EXTT4=
EXTT5=
EXTT6=
EXTT7=
EXTT8=
EXTT9=
EXTT10=
EXTT11=
PLAYORDER=
